<?xml version="1.0" encoding="utf-8"?>
<svg xmlns="http://www.w3.org/2000/svg" xmlns:xlink="http://www.w3.org/1999/xlink" version= "1.1" width="1012px" height="1013px" viewBox="-146 207 1012 1013">
<g id="layer1">
<g style="fill:rgb(0,174,199); fill-opacity:0.99607843; stroke-linejoin: miter">
<path d="M-146.001,206.16986C-146.2209,206.16986,-146.43181,206.25722,-146.5873,206.4127C-146.74278,206.56819,-146.83014,206.7791,-146.83014,206.999L-146.82913,1220.0C-146.82913,1220.4579,-146.45792,1220.8291,-146.0,1220.8291L866.001,1220.8301C866.2209,1220.8301,866.43176,1220.7428,866.5873,1220.5873C866.7428,1220.4318,866.8301,1220.2208,866.8301,1220.001L866.8291,207.0C866.8291,206.54208,866.4579,206.17087,866.0,206.17087L-146.001,206.16986 Z"/>
</g>
</g>
<g id="layer2">
<g style="fill:rgb(0,0,0); fill-opacity:1.0; stroke-linejoin: miter">
<path d="M163.54759,800.6749L186.54868,800.6749L209.54985,800.6749Q209.54971,829.7267,209.54971,858.7783Q186.54893,858.7785,163.54768,858.7788Q163.54758,829.7267,163.54759,800.6749 Z"/>
</g>
<g style="fill:rgb(0,0,0); fill-opacity:1.0; stroke-linejoin: miter">
<path d="M86.45983,679.3674L186.54878,679.3679L286.63763,679.3682Q286.63776,744.4533,286.63763,809.5386Q186.54865,809.53845,86.4597,809.53864Q86.45983,744.4532,86.45983,679.3674 Z"/>
</g>
<g style="fill:rgb(255,255,255); fill-opacity:1.0; stroke-linejoin: miter">
<path d="M91.53931,685.24255L186.54872,685.2426L281.55786,685.243Q281.5581,744.1,281.55774,802.95715Q186.5486,802.95715,91.53929,802.9572Q91.53929,744.0999,91.53931,685.24255 Z"/>
</g>
<g style="fill:rgb(0,0,0); fill-opacity:0.99607843; stroke-linejoin: miter">
<path d="M154.31104,851.9194L186.5487,851.9195L218.78638,851.91956Q218.78638,856.54486,218.78638,861.1702Q186.5487,861.17035,154.31104,861.17053Q154.31104,856.5449,154.31104,851.9194"/>
</g>
<g style="fill:rgb(0,0,0); fill-opacity:1.0; stroke-linejoin: miter">
<path d="M137.45528,252.11075L361.52814,252.11127L585.601,252.11182Q585.601,422.08823,585.601,592.06464Q361.52814,592.0652,137.45528,592.0657Q137.45528,422.08823,137.45528,252.11075"/>
</g>
<g style="fill:rgb(60,70,79); fill-opacity:1.0; stroke-linejoin: miter">
<path d="M160.23018,265.56046L361.52814,265.56097L562.8261,265.5615L562.8261,578.61456Q361.52814,578.6151,160.23018,578.6156Q160.23018,422.088,160.23018,265.56046"/>
</g>
<g style="fill:rgb(34,43,50); fill-opacity:1.0; stroke-linejoin: miter">
<path d="M507.65094,273.36514L531.39557,273.36563L555.14014,273.36618Q555.14014,414.90842,555.14014,556.4506Q531.39557,556.4511,507.65094,556.45166Q507.65094,414.90842,507.65094,273.36514"/>
</g>
<g style="fill:rgb(0,0,0); fill-opacity:0.21176471; stroke-linejoin: miter">
<path d="M779.2397,1169.8748L775.50903,1172.4075Q748.98425,1180.0598,620.287,1184.6482Q490.69904,1189.2327,315.08978,1188.3662Q147.49348,1187.1548,47.010384,1181.2781Q14.814487,1179.3784,-6.0287914,1177.1387L-23.546988,1174.8357Q-37.98362,1172.4587,-38.14597,1169.8745Q-33.76337,1161.9446,81.55743,1156.6792Q196.87828,1151.4131,370.54688,1151.2134Q544.21564,1151.4136,659.53644,1156.6797Q774.85724,1161.9451,779.2397,1169.8748 Z"/>
</g>
<g style="fill:rgb(255,255,255); fill-opacity:0.99607843; stroke-linejoin: miter">
<path d="M115.29002,874.30365L207.08337,874.30414L298.8767,874.30475Q298.8767,929.9588,298.8767,985.61285Q207.08337,985.61334,115.29002,985.61383Q115.29002,929.95874,115.29002,874.30365"/>
</g>
<g style="fill:rgb(255,255,255); fill-opacity:0.99607843; stroke-linejoin: miter">
<path d="M122.96008,878.5617L139.4745,878.56226L155.98892,878.56274Q155.98892,1028.4434,155.98892,1178.324Q139.4745,1178.3245,122.96008,1178.325Q122.96008,1028.4434,122.96008,878.5617"/>
</g>
<g style="fill:rgb(125,139,150); fill-opacity:0.99607843; stroke-linejoin: miter">
<path d="M130.6021,905.4379L205.503,905.4385L280.40393,905.439Q280.40393,935.06476,280.40393,964.6906Q205.503,964.6911,130.6021,964.6916Q130.6021,935.06476,130.6021,905.4379"/>
</g>
<g style="fill:rgb(255,255,255); fill-opacity:0.99607843; stroke-linejoin: miter">
<path d="M102.425575,860.65753L362.84247,860.658L623.2593,860.65857Q623.2593,876.1069,623.2593,891.5551Q362.84247,891.5557,102.425575,891.5562Q102.425575,876.1069,102.425575,860.65753"/>
</g>
<g style="fill:rgb(255,255,255); fill-opacity:0.99607843; stroke-linejoin: miter">
<path d="M566.23346,886.58997L580.0632,886.5905L593.8928,886.591Q593.8928,1026.4121,593.8928,1166.2334Q580.0632,1166.2339,566.23346,1166.2346Q566.23346,1026.4121,566.23346,886.58997"/>
</g>
<g style="fill:rgb(148,154,159); fill-opacity:1.0; stroke-linejoin: miter">
<path d="M481.67657,305.9966L481.67657,305.9969L204.19276,305.9965C203.83824,305.9965,203.55078,305.7091,203.55078,305.35455C203.55078,305.0001,203.83824,304.71265,204.19276,304.71265L204.19276,304.7129L481.67657,304.71274C482.03107,304.71274,482.31848,305.00015,482.31848,305.3546C482.31848,305.70923,482.03107,305.9966,481.67657,305.9966 Z"/>
</g>
<g style="fill:rgb(148,154,159); fill-opacity:1.0; stroke-linejoin: miter">
<path d="M481.67645,362.89188L481.67645,362.89218L204.19269,362.89185C203.83815,362.89185,203.55067,362.60446,203.55067,362.24988C203.55067,361.89532,203.83815,361.608,204.19269,361.608L204.19269,361.60815L481.67645,361.608C482.03107,361.608,482.31848,361.89545,482.31848,362.24994C482.31848,362.60458,482.03107,362.89188,481.67645,362.89188 Z"/>
</g>
<g style="fill:rgb(148,154,159); fill-opacity:1.0; stroke-linejoin: miter">
<path d="M481.6765,419.78714L481.6765,419.7875L204.19264,419.78714C203.83806,419.78714,203.55066,419.49976,203.55066,419.14523C203.55064,418.79068,203.83804,418.50317,204.19263,418.50317L204.19263,418.50345L481.6765,418.50327C482.03107,418.50327,482.31848,418.79074,482.31848,419.14523C482.31848,419.49982,482.03107,419.78714,481.6765,419.78714 Z"/>
</g>
<g style="fill:rgb(148,154,159); fill-opacity:1.0; stroke-linejoin: miter">
<path d="M481.67645,476.68253L481.67645,476.68268L204.19264,476.6824C203.83806,476.6824,203.55066,476.39505,203.55066,476.04047C203.55066,475.68582,203.83806,475.39847,204.19264,475.39847L204.19264,475.3987L481.67645,475.39856C482.03107,475.39856,482.31848,475.686,482.31848,476.04047C482.31848,476.39505,482.03107,476.68253,481.67645,476.68253 Z"/>
</g>
<g style="fill:rgb(148,154,159); fill-opacity:1.0; stroke-linejoin: miter">
<path d="M481.67657,533.5777L481.67657,533.5778L204.19264,533.57764C203.83809,533.57764,203.55063,533.29034,203.55063,532.93567C203.55063,532.581,203.83809,532.2936,204.19264,532.2936L204.19264,532.2938L481.67657,532.29364C482.0312,532.29364,482.3186,532.581,482.3186,532.9358C482.3186,533.2903,482.0312,533.5777,481.67657,533.5777 Z"/>
</g>
<g style="fill:rgb(148,154,159); fill-opacity:1.0; stroke-linejoin: miter">
<path d="M286.68152,280.40308L286.68152,280.40332L286.6812,557.88715C286.6812,558.24164,286.39392,558.5291,286.03937,558.5291C285.68475,558.5291,285.39734,558.24164,285.39734,557.88715L285.39734,557.8875L285.39752,280.40308C285.39752,280.0485,285.68494,279.7611,286.03955,279.7611C286.39404,279.7611,286.68152,280.0485,286.68152,280.40308 Z"/>
</g>
<g style="fill:rgb(148,154,159); fill-opacity:1.0; stroke-linejoin: miter">
<path d="M343.57666,280.403L343.57666,280.40326L343.57654,557.88715C343.57654,558.24164,343.28912,558.5291,342.93457,558.5291C342.57996,558.5291,342.2926,558.24164,342.2926,557.88715L342.2926,557.88727L342.29272,280.403C342.29272,280.0485,342.58014,279.7611,342.93463,279.7611C343.2893,279.7611,343.57666,280.0485,343.57666,280.403 Z"/>
</g>
<g style="fill:rgb(148,154,159); fill-opacity:1.0; stroke-linejoin: miter">
<path d="M400.47192,280.4031L400.47192,280.40332L400.47186,557.88715C400.47186,558.24176,400.1844,558.5291,399.8299,558.5291C399.47534,558.5291,399.18793,558.24176,399.18793,557.88715L399.18793,557.8875L399.18793,280.4031C399.18793,280.04852,399.4754,279.76114,399.82996,279.76114C400.18463,279.76114,400.47192,280.04852,400.47192,280.4031 Z"/>
</g>
<g style="fill:rgb(255,255,255); fill-opacity:0.4509804; stroke-linejoin: miter">
<path d="M457.36707,280.4031L457.36707,280.40332L457.3672,557.88715C457.3672,558.24164,457.0796,558.52905,456.72498,558.52905C456.37054,558.52905,456.08307,558.24164,456.08307,557.88715L456.08307,557.88727L456.08337,280.4031C456.08337,280.04852,456.37067,279.76114,456.72528,279.76114C457.07965,279.76114,457.36707,280.04852,457.36707,280.4031 Z"/>
</g>
<g style="fill:rgb(148,154,159); fill-opacity:1.0; stroke-linejoin: miter">
<path d="M229.78615,280.40298L229.78615,280.40332L229.78609,557.88715C229.78609,558.24164,229.49866,558.5291,229.14413,558.5291C228.78952,558.5291,228.50209,558.24164,228.50209,557.88715L228.50209,557.8875L228.50227,280.40298C228.50227,280.04846,228.78964,279.76108,229.14423,279.76108C229.49878,279.76108,229.78615,280.04846,229.78615,280.40298 Z"/>
</g>
<g style="fill:rgb(255,0,0); fill-opacity:1.0; stroke-linejoin: miter">
<path d="M216.1604,362.34198L219.07703,362.3421L221.99356,362.34222Q221.99356,379.716,221.99359,397.0897Q219.07706,397.08984,216.1605,397.09Q216.1604,379.716,216.1604,362.34198 Z"/>
</g>
<g style="fill:rgb(255,0,0); fill-opacity:1.0; stroke-linejoin: miter">
<path d="M219.491,357.3215L219.07143,357.32156L218.65184,357.3226Q218.65184,380.45407,218.65187,403.58652Q219.07146,403.58655,219.49103,403.58655Q219.491,380.45407,219.491,357.3215 Z"/>
</g>
<g style="fill:rgb(255,0,0); fill-opacity:1.0; stroke-linejoin: miter">
<path d="M223.60318,370.47568L226.5198,370.47583L229.43642,370.47592Q229.43642,387.8497,229.43642,405.22345Q226.5198,405.2236,223.60321,405.2237Q223.60324,387.8497,223.60318,370.47568 Z"/>
</g>
<g style="fill:rgb(255,0,0); fill-opacity:1.0; stroke-linejoin: miter">
<path d="M226.93379,365.45517L226.5142,365.4552L226.09464,365.45547Q226.09464,388.5878,226.09454,411.72018Q226.51418,411.7202,226.93373,411.7202Q226.93382,388.5878,226.93379,365.45517 Z"/>
</g>
<g style="fill:rgb(255,0,0); fill-opacity:1.0; stroke-linejoin: miter">
<path d="M231.04602,383.97025L233.9626,383.97043L236.8792,383.97055Q236.87926,401.34433,236.87917,418.71796Q233.96263,418.7181,231.04602,418.7182Q231.04605,401.3443,231.04602,383.97025 Z"/>
</g>
<g style="fill:rgb(255,0,0); fill-opacity:1.0; stroke-linejoin: miter">
<path d="M234.3766,378.9499L233.95708,378.95093L233.53752,378.9499Q233.53755,402.08234,233.53749,425.21475Q233.95708,425.2148,234.3766,425.21484Q234.37663,402.08234,234.3766,378.9499 Z"/>
</g>
<g style="fill:rgb(255,0,0); fill-opacity:1.0; stroke-linejoin: miter">
<path d="M238.48885,396.0501L241.40544,396.05014L244.32207,396.05035Q244.322,413.42392,244.32204,430.7978Q241.40541,430.79782,238.48888,430.79803Q238.48875,413.42392,238.48885,396.0501 Z"/>
</g>
<g style="fill:rgb(255,0,0); fill-opacity:1.0; stroke-linejoin: miter">
<path d="M241.81944,391.0295L241.39992,391.02957L240.9803,391.0296Q240.98021,414.16202,240.98027,437.2945Q241.39983,437.2945,241.81947,437.29453Q241.81938,414.16202,241.81944,391.0295 Z"/>
</g>
<g style="fill:rgb(255,0,0); fill-opacity:1.0; stroke-linejoin: miter">
<path d="M245.93172,403.9989L248.84831,403.99902L251.76482,403.99915Q251.76476,421.37286,251.76476,438.74655Q248.84816,438.74667,245.93166,438.74683Q245.93178,421.37286,245.93172,403.9989 Z"/>
</g>
<g style="fill:rgb(255,0,0); fill-opacity:1.0; stroke-linejoin: miter">
<path d="M249.26222,398.9784L248.84267,398.97845L248.42305,398.9785Q248.42305,422.111,248.42299,445.24332Q248.84254,445.24332,249.26222,445.24338Q249.26222,422.111,249.26222,398.9784 Z"/>
</g>
<g style="fill:rgb(76,175,80); fill-opacity:1.0; stroke-linejoin: miter">
<path d="M253.57387,423.37537L256.49054,423.37527L259.40698,423.37512Q259.40704,406.00143,259.4071,388.6277Q256.4906,388.62753,253.57399,388.62735Q253.57393,406.00143,253.57387,423.37537 Z"/>
</g>
<g style="fill:rgb(76,175,80); fill-opacity:1.0; stroke-linejoin: miter">
<path d="M256.90454,428.39584L256.48492,428.3958L256.0653,428.39572Q256.06537,405.26337,256.0653,382.13092Q256.48486,382.13086,256.90454,382.1308Q256.90454,405.26337,256.90454,428.39584 Z"/>
</g>
<g style="fill:rgb(76,175,80); fill-opacity:1.0; stroke-linejoin: miter">
<path d="M261.01666,415.24167L263.9333,415.24152L266.8499,415.2413Q266.85004,397.8677,266.84998,380.494Q263.93335,380.4938,261.01672,380.49362Q261.01672,397.8676,261.01666,415.24167 Z"/>
</g>
<g style="fill:rgb(76,175,80); fill-opacity:1.0; stroke-linejoin: miter">
<path d="M264.34735,420.26218L263.9278,420.2621L263.50824,420.26205Q263.5083,397.1296,263.50824,373.99716Q263.92773,373.9971,264.3474,373.9971Q264.34747,397.1296,264.34735,420.26218 Z"/>
</g>
<g style="fill:rgb(76,175,80); fill-opacity:1.0; stroke-linejoin: miter">
<path d="M268.4596,401.7472L271.37628,401.7471L274.2928,401.74692Q274.29272,384.3732,274.2928,366.99942Q271.37622,366.99924,268.4596,366.99905Q268.4596,384.37314,268.4596,401.7472 Z"/>
</g>
<g style="fill:rgb(76,175,80); fill-opacity:1.0; stroke-linejoin: miter">
<path d="M271.79004,406.76755L271.37054,406.7686L270.95093,406.76752Q270.951,383.63504,270.951,360.50253Q271.3706,360.50253,271.79016,360.5025Q271.79016,383.63504,271.79004,406.76755 Z"/>
</g>
<g style="fill:rgb(76,175,80); fill-opacity:1.0; stroke-linejoin: miter">
<path d="M275.90247,389.66754L278.8191,389.66736L281.73572,389.6673Q281.7356,372.29355,281.7356,354.91968Q278.81897,354.9196,275.90247,354.9194Q275.90247,372.29355,275.90247,389.66754 Z"/>
</g>
<g style="fill:rgb(76,175,80); fill-opacity:1.0; stroke-linejoin: miter">
<path d="M279.23303,394.68802L278.81348,394.6879L278.39392,394.68787Q278.39392,371.55545,278.39392,348.42288Q278.81342,348.4228,279.23303,348.4228Q279.23303,371.55545,279.23303,394.68802 Z"/>
</g>
<g style="fill:rgb(76,175,80); fill-opacity:1.0; stroke-linejoin: miter">
<path d="M283.34528,381.7186L286.2619,381.7185L289.17834,381.71835Q289.17834,364.34457,289.17847,346.97086Q286.2619,346.97073,283.34528,346.97055Q283.34528,364.34457,283.34528,381.7186 Z"/>
</g>
<g style="fill:rgb(76,175,80); fill-opacity:1.0; stroke-linejoin: miter">
<path d="M286.6759,386.7391L286.2564,386.74017L285.83667,386.7391Q285.8366,363.6065,285.8366,340.47406Q286.25623,340.47397,286.67584,340.47397Q286.67584,363.6065,286.6759,386.7391 Z"/>
</g>
<g style="fill:rgb(255,0,0); fill-opacity:1.0; stroke-linejoin: miter">
<path d="M290.1621,377.03134L293.07886,377.0315L295.99542,377.03162Q295.99536,394.40543,295.9953,411.77908Q293.07874,411.77917,290.1621,411.7794Q290.16217,394.40536,290.1621,377.03134 Z"/>
</g>
<g style="fill:rgb(255,0,0); fill-opacity:1.0; stroke-linejoin: miter">
<path d="M293.49286,372.01083L293.07324,372.01086L292.6537,372.01193Q292.65363,395.1435,292.65363,418.27588Q293.07318,418.276,293.4928,418.276Q293.49286,395.1435,293.49286,372.01083 Z"/>
</g>
<g style="fill:rgb(255,0,0); fill-opacity:1.0; stroke-linejoin: miter">
<path d="M297.60504,385.165L300.5216,385.1652L303.4383,385.16534Q303.43842,402.53918,303.43835,419.91287Q300.5216,419.91296,297.60498,419.9132Q297.6051,402.53915,297.60504,385.165 Z"/>
</g>
<g style="fill:rgb(255,0,0); fill-opacity:1.0; stroke-linejoin: miter">
<path d="M300.93567,380.1446L300.5161,380.14462L300.0965,380.14468Q300.09656,403.27725,300.09656,426.4097Q300.5161,426.4097,300.93567,426.4097Q300.93573,403.27725,300.93567,380.1446 Z"/>
</g>
<g style="fill:rgb(255,0,0); fill-opacity:1.0; stroke-linejoin: miter">
<path d="M305.04785,398.6597L307.96448,398.65985L310.8811,398.65997Q310.88098,416.03372,310.88104,433.40744Q307.96448,433.4076,305.04785,433.4077Q305.0478,416.03372,305.04785,398.6597 Z"/>
</g>
<g style="fill:rgb(255,0,0); fill-opacity:1.0; stroke-linejoin: miter">
<path d="M308.37854,393.6392L307.95892,393.6393L307.53943,393.63934Q307.53925,416.7717,307.5393,439.9043Q307.95886,439.9043,308.37848,439.9043Q308.37848,416.7717,308.37854,393.6392 Z"/>
</g>
<g style="fill:rgb(255,0,0); fill-opacity:1.0; stroke-linejoin: miter">
<path d="M312.4906,410.73938L315.40735,410.73947L318.32385,410.73965Q318.32397,428.11343,318.32385,445.48712Q315.4073,445.4873,312.49066,445.4874Q312.49078,428.11343,312.4906,410.73938 Z"/>
</g>
<g style="fill:rgb(255,0,0); fill-opacity:1.0; stroke-linejoin: miter">
<path d="M315.8213,405.719L315.4018,405.72003L314.98218,405.71906Q314.98218,428.8514,314.98212,451.9839Q315.40167,451.98398,315.8213,451.98398Q315.82135,428.8514,315.8213,405.719 Z"/>
</g>
<g style="fill:rgb(255,0,0); fill-opacity:1.0; stroke-linejoin: miter">
<path d="M319.93353,418.6883L322.85004,418.6884L325.76666,418.68857Q325.76672,436.06232,325.7666,453.43604Q322.85004,453.43604,319.93347,453.43625Q319.93353,436.06232,319.93353,418.6883 Z"/>
</g>
<g style="fill:rgb(255,0,0); fill-opacity:1.0; stroke-linejoin: miter">
<path d="M323.2641,413.66782L322.84448,413.66885L322.42493,413.66785Q322.425,436.80026,322.42493,459.93268Q322.84448,459.93277,323.2641,459.93283Q323.26416,436.80038,323.2641,413.66782 Z"/>
</g>
<g style="fill:rgb(255,0,0); fill-opacity:1.0; stroke-linejoin: miter">
<path d="M328.38635,429.05585L331.30286,429.05603L334.21954,429.0562Q334.21954,446.4299,334.21936,463.80362Q331.30273,463.80362,328.38623,463.8038Q328.3863,446.4299,328.38635,429.05585 Z"/>
</g>
<g style="fill:rgb(255,0,0); fill-opacity:1.0; stroke-linejoin: miter">
<path d="M331.71686,424.0354L331.29736,424.03647L330.87775,424.03543Q330.87775,447.1679,330.87775,470.30026Q331.29724,470.30035,331.7168,470.3004Q331.71686,447.1679,331.71686,424.0354 Z"/>
</g>
<g style="fill:rgb(255,0,0); fill-opacity:1.0; stroke-linejoin: miter">
<path d="M335.82916,437.1896L338.74573,437.18976L341.6623,437.18997Q341.66223,454.56345,341.66223,471.9373Q338.74567,471.93735,335.82904,471.93753Q335.82904,454.56345,335.82916,437.1896 Z"/>
</g>
<g style="fill:rgb(255,0,0); fill-opacity:1.0; stroke-linejoin: miter">
<path d="M339.1598,432.16916L338.74023,432.16922L338.32068,432.1693Q338.32056,455.30154,338.32056,478.43402Q338.74005,478.4341,339.15967,478.4341Q339.15967,455.30154,339.1598,432.16916 Z"/>
</g>
<g style="fill:rgb(255,0,0); fill-opacity:1.0; stroke-linejoin: miter">
<path d="M343.27197,450.68414L346.18848,450.68423L349.10516,450.6845Q349.10504,468.05814,349.10516,485.43195Q346.18848,485.43204,343.27185,485.43216Q343.27185,468.05814,343.27197,450.68414 Z"/>
</g>
<g style="fill:rgb(255,0,0); fill-opacity:1.0; stroke-linejoin: miter">
<path d="M346.60248,445.66373L346.18292,445.66476L345.7633,445.66373Q345.7633,468.7961,345.76337,491.92865Q346.18292,491.9287,346.60254,491.9287Q346.60248,468.7961,346.60248,445.66373 Z"/>
</g>
<g style="fill:rgb(255,0,0); fill-opacity:1.0; stroke-linejoin: miter">
<path d="M350.71466,462.76385L353.63135,462.7641L356.5479,462.7642Q356.5479,480.13788,356.54797,497.51147Q353.6314,497.51166,350.71472,497.51184Q350.71466,480.13788,350.71466,462.76385 Z"/>
</g>
<g style="fill:rgb(255,0,0); fill-opacity:1.0; stroke-linejoin: miter">
<path d="M354.04535,457.74335L353.62573,457.74442L353.20612,457.74347Q353.20612,480.8759,353.20612,504.00836Q353.62573,504.00836,354.0454,504.00836Q354.04535,480.8759,354.04535,457.74335 Z"/>
</g>
<g style="fill:rgb(255,0,0); fill-opacity:1.0; stroke-linejoin: miter">
<path d="M358.1576,470.71265L361.0741,470.71283L363.99078,470.71304Q363.99078,488.0869,363.99078,505.46045Q361.07404,505.4605,358.1576,505.46075Q358.1576,488.08673,358.1576,470.71265 Z"/>
</g>
<g style="fill:rgb(255,0,0); fill-opacity:1.0; stroke-linejoin: miter">
<path d="M361.48804,465.69226L361.06854,465.69333L360.64893,465.6923Q360.649,488.82486,360.649,511.95734Q361.06848,511.95734,361.48816,511.95746Q361.48816,488.82486,361.48804,465.69226 Z"/>
</g>
<g style="fill:rgb(255,0,0); fill-opacity:1.0; stroke-linejoin: miter">
<path d="M366.05774,474.3941L368.97412,474.39426L371.8908,474.39432Q371.89093,491.7682,371.89093,509.1419Q368.97424,509.1421,366.0578,509.14227Q366.0578,491.7682,366.05774,474.3941 Z"/>
</g>
<g style="fill:rgb(255,0,0); fill-opacity:1.0; stroke-linejoin: miter">
<path d="M369.38818,469.37354L368.96844,469.37372L368.54895,469.37476Q368.54913,492.5063,368.54913,515.63873Q368.96875,515.63873,369.38824,515.63873Q369.38824,492.5063,369.38818,469.37354 Z"/>
</g>
<g style="fill:rgb(255,0,0); fill-opacity:1.0; stroke-linejoin: miter">
<path d="M373.5005,482.52774L376.417,482.52795L379.33362,482.52814Q379.33374,499.90198,379.33374,517.2757Q376.4171,517.2758,373.50055,517.27594Q373.50055,499.90198,373.5005,482.52774 Z"/>
</g>
<g style="fill:rgb(255,0,0); fill-opacity:1.0; stroke-linejoin: miter">
<path d="M376.831,477.50735L376.4115,477.5074L375.99182,477.50763Q375.99188,500.6399,375.99188,523.77234Q376.41156,523.77246,376.83118,523.77246Q376.83112,500.6399,376.831,477.50735 Z"/>
</g>
<g style="fill:rgb(255,0,0); fill-opacity:1.0; stroke-linejoin: miter">
<path d="M380.94342,496.0224L383.8598,496.02252L386.7765,496.02277Q386.77655,513.3965,386.77655,530.7702Q383.8598,530.7703,380.94342,530.77045Q380.94336,513.3965,380.94342,496.0224 Z"/>
</g>
<g style="fill:rgb(255,0,0); fill-opacity:1.0; stroke-linejoin: miter">
<path d="M384.27393,491.002L383.8543,491.0022L383.43475,491.00323Q383.4347,514.1346,383.43475,537.26685Q383.85425,537.26685,384.2738,537.267Q384.27386,514.1346,384.27393,491.002 Z"/>
</g>
<g style="fill:rgb(255,0,0); fill-opacity:1.0; stroke-linejoin: miter">
<path d="M388.38605,508.10217L391.3028,508.10242L394.2193,508.10254Q394.2193,525.47614,394.2193,542.8498Q391.3028,542.85004,388.3861,542.85004Q388.3861,525.47614,388.38605,508.10217 Z"/>
</g>
<g style="fill:rgb(255,0,0); fill-opacity:1.0; stroke-linejoin: miter">
<path d="M391.71674,503.0818L391.29706,503.0829L390.87744,503.0818Q390.8775,526.2141,390.87762,549.34656Q391.29712,549.34656,391.71674,549.34656Q391.71674,526.2141,391.71674,503.0818 Z"/>
</g>
<g style="fill:rgb(255,0,0); fill-opacity:1.0; stroke-linejoin: miter">
<path d="M395.82898,516.051L398.74542,516.0512L401.662,516.0514Q401.662,533.42487,401.662,550.79877Q398.74542,550.79877,395.82898,550.7989Q395.82898,533.42487,395.82898,516.051 Z"/>
</g>
<g style="fill:rgb(255,0,0); fill-opacity:1.0; stroke-linejoin: miter">
<path d="M399.1595,511.03064L398.74,511.03076L398.32043,511.03088Q398.32037,534.16296,398.32037,557.2954Q398.74,557.2954,399.1595,557.29553Q399.1595,534.16296,399.1595,511.03064 Z"/>
</g>
<g style="fill:rgb(76,175,80); fill-opacity:1.0; stroke-linejoin: miter">
<path d="M405.11835,538.0765L408.0349,538.0761L410.95148,538.07715Q410.95148,520.70245,410.95142,503.3288Q408.0349,503.32855,405.11835,503.32855Q405.11835,520.7025,405.11835,538.0765 Z"/>
</g>
<g style="fill:rgb(76,175,80); fill-opacity:1.0; stroke-linejoin: miter">
<path d="M408.44885,543.09674L408.02924,543.0977L407.60986,543.0971Q407.60986,519.9644,407.60974,496.83203Q408.02942,496.83185,408.44885,496.83185Q408.44885,519.9644,408.44885,543.09674 Z"/>
</g>
<g style="fill:rgb(76,175,80); fill-opacity:1.0; stroke-linejoin: miter">
<path d="M412.56116,529.9427L415.47772,529.94257L418.39435,529.9425Q418.39435,512.5687,418.3941,495.195Q415.47766,495.1949,412.56104,495.19476Q412.56116,512.5687,412.56116,529.9427 Z"/>
</g>
<g style="fill:rgb(76,175,80); fill-opacity:1.0; stroke-linejoin: miter">
<path d="M415.89178,534.9631L415.472,534.9641L415.05243,534.963Q415.0526,511.8308,415.0523,488.6982Q415.47192,488.69815,415.89166,488.69815Q415.89185,511.8308,415.89178,534.9631 Z"/>
</g>
<g style="fill:rgb(76,175,80); fill-opacity:1.0; stroke-linejoin: miter">
<path d="M420.00397,516.44824L422.92053,516.4493L425.83722,516.4481Q425.83698,499.07422,425.8368,481.70044Q422.9204,481.7003,420.0039,481.7001Q420.00397,499.07422,420.00397,516.44824 Z"/>
</g>
<g style="fill:rgb(76,175,80); fill-opacity:1.0; stroke-linejoin: miter">
<path d="M423.33453,521.4687L422.91492,521.4697L422.49542,521.4687Q422.49518,498.33618,422.49524,475.2037Q422.91473,475.2036,423.3344,475.20352Q423.33453,498.33618,423.33453,521.4687 Z"/>
</g>
<g style="fill:rgb(76,175,80); fill-opacity:1.0; stroke-linejoin: miter">
<path d="M427.44672,504.3686L430.36346,504.3684L433.2799,504.36835Q433.2799,486.99448,433.27972,469.62067Q430.36316,469.62057,427.44653,469.62048Q427.44672,486.99448,427.44672,504.3686 Z"/>
</g>
<g style="fill:rgb(76,175,80); fill-opacity:1.0; stroke-linejoin: miter">
<path d="M430.7774,509.3891L430.3578,509.38934L429.93823,509.3891Q429.9381,486.2564,429.93805,463.1239Q430.35742,463.1239,430.77722,463.12378Q430.77728,486.2565,430.7774,509.3891 Z"/>
</g>
<g style="fill:rgb(76,175,80); fill-opacity:1.0; stroke-linejoin: miter">
<path d="M434.88953,496.41962L437.8061,496.41956L440.72266,496.41937Q440.7226,479.04565,440.7226,461.6718Q437.80597,461.67172,434.88947,461.67163Q434.88947,479.04565,434.88953,496.41962 Z"/>
</g>
<g style="fill:rgb(76,175,80); fill-opacity:1.0; stroke-linejoin: miter">
<path d="M438.2201,501.44025L437.80054,501.44128L437.3811,501.44012Q437.38098,478.30762,437.38098,455.1751Q437.80054,455.1751,438.21997,455.17496Q438.22003,478.3075,438.2201,501.44025 Z"/>
</g>
<g style="fill:rgb(76,175,80); fill-opacity:1.0; stroke-linejoin: miter">
<path d="M442.81744,466.19464L445.7339,466.1944L448.6505,466.19424Q448.6505,448.8205,448.6505,431.44687Q445.73407,431.4467,442.81744,431.44647Q442.81744,448.8205,442.81744,466.19464 Z"/>
</g>
<g style="fill:rgb(76,175,80); fill-opacity:1.0; stroke-linejoin: miter">
<path d="M446.14795,471.215L445.72845,471.21494L445.3089,471.21597Q445.3089,448.08252,445.30884,424.95004Q445.72833,424.95004,446.14795,424.95004Q446.14813,448.08252,446.14795,471.215 Z"/>
</g>
<g style="fill:rgb(76,175,80); fill-opacity:1.0; stroke-linejoin: miter">
<path d="M450.2602,458.0609L453.17676,458.06073L456.09338,458.06058Q456.09338,440.68686,456.0935,423.31314Q453.17676,423.313,450.2602,423.31284Q450.2602,440.68686,450.2602,458.0609 Z"/>
</g>
<g style="fill:rgb(76,175,80); fill-opacity:1.0; stroke-linejoin: miter">
<path d="M453.5907,463.0814L453.17114,463.08243L452.75153,463.08124Q452.7517,439.94888,452.75153,416.8163Q453.17108,416.8163,453.5907,416.81625Q453.59088,439.94888,453.5907,463.0814 Z"/>
</g>
<g style="fill:rgb(76,175,80); fill-opacity:1.0; stroke-linejoin: miter">
<path d="M457.70294,444.56625L460.61957,444.5662L463.53607,444.56616Q463.53613,427.19223,463.53613,409.81857Q460.61957,409.8184,457.70294,409.8182Q457.70294,427.1923,457.70294,444.56625 Z"/>
</g>
<g style="fill:rgb(76,175,80); fill-opacity:1.0; stroke-linejoin: miter">
<path d="M461.03357,449.58676L460.61407,449.58783L460.19434,449.58676Q460.19458,426.45425,460.19464,403.32187Q460.61414,403.32187,461.0337,403.3218Q461.03357,426.45425,461.03357,449.58676 Z"/>
</g>
<g style="fill:rgb(76,175,80); fill-opacity:1.0; stroke-linejoin: miter">
<path d="M465.14587,432.4866L468.0625,432.48645L470.9792,432.48636Q470.97906,415.11258,470.97906,397.7389Q468.06238,397.73868,465.14575,397.73853Q465.1457,415.11258,465.14587,432.4866 Z"/>
</g>
<g style="fill:rgb(76,175,80); fill-opacity:1.0; stroke-linejoin: miter">
<path d="M468.4765,437.5071L468.0569,437.50735L467.63733,437.50702Q467.63715,414.37454,467.63733,391.2421Q468.05695,391.242,468.47644,391.2419Q468.47638,414.37457,468.4765,437.5071 Z"/>
</g>
<g style="fill:rgb(76,175,80); fill-opacity:1.0; stroke-linejoin: miter">
<path d="M472.58868,424.5378L475.5055,424.53766L478.42188,424.53745Q478.42188,407.16385,478.42194,389.78998Q475.50537,389.78986,472.58875,389.7897Q472.58868,407.16385,472.58868,424.5378 Z"/>
</g>
<g style="fill:rgb(76,175,80); fill-opacity:1.0; stroke-linejoin: miter">
<path d="M475.91937,429.5583L475.49988,429.55933L475.08014,429.5583Q475.08014,406.42563,475.08002,383.29315Q475.49957,383.29312,475.91925,383.29306Q475.91937,406.42563,475.91937,429.5583 Z"/>
</g>
<g style="fill:rgb(3,169,244); fill-opacity:1.0; stroke-linejoin: miter">
<path d="M228.7167,350.873L228.7167,350.8732L228.7167,350.8735L226.7846,349.8982C230.5214,347.13907,234.80305,343.90448,238.51198,343.90448L238.51198,343.9047C241.3022,343.90448,243.47221,345.64835,244.90517,349.27625L244.90517,349.27658C246.80788,354.09326,247.6909,362.90872,248.39201,369.81613L248.39201,369.81638C248.89143,374.7364,249.28923,378.51932,249.79518,379.80017L249.79518,379.80035C249.8348,379.90045,249.86018,379.94357,249.86421,379.9498L249.86421,379.94983C249.87498,379.96652,249.81981,379.86957,249.66875,379.77753L249.66875,379.77744C249.54436,379.7017,249.37697,379.64352,249.18422,379.64352L249.18422,379.6438C248.78706,379.64352,248.60002,379.8765,248.64046,379.8334L248.64046,379.83368C249.22173,379.21323,250.23738,375.72705,251.5483,371.01898L251.5483,371.0192C252.98372,365.86386,254.70695,359.60013,256.5161,357.04343L256.5161,357.04364C257.3376,355.88245,258.33795,355.2317,259.5301,355.2317L259.5301,355.2319C260.85803,355.2317,262.08954,356.09576,262.909,356.63638L262.909,356.63666C263.9909,357.35016,264.69763,357.76944,265.34845,357.76944L265.34845,357.76968C265.76105,357.76944,266.44263,357.58093,267.38464,356.21674L267.38464,356.21698C268.695,354.31903,270.1535,350.67587,271.80865,346.51706L271.80865,346.51727C273.6756,341.82608,275.7669,336.55154,278.05945,333.23157L278.05945,333.23187C279.3877,331.30807,281.08875,329.5802,283.20013,329.5802L283.20013,329.58054C283.7209,329.5802,284.23407,329.68774,284.732,329.89783L284.732,329.89804C288.8824,331.6485,292.99847,341.7565,296.98315,351.27808L296.98315,351.27838C300.27826,359.15207,303.64496,367.1788,307.06665,372.00217L307.06665,372.00238C311.52905,378.2923,316.04828,379.04758,319.96533,379.71225L319.96533,379.7125C322.6095,380.1609,325.46112,380.59088,327.36823,383.16483L327.36823,383.1651C329.2303,385.67804,330.08954,390.1876,330.98706,394.73697L330.98706,394.73715C332.19318,400.85144,333.52075,407.4625,336.87573,411.99066L336.87573,411.99094C337.0064,412.16705,337.1407,412.34085,337.27734,412.51016L337.27734,412.5112C339.73315,415.5541,343.26508,417.5889,347.65247,420.09412L347.65247,420.0944C353.61365,423.4981,360.83392,427.61484,367.7458,436.18158L367.7458,436.18192C368.77832,437.46158,369.80292,438.83908,370.81537,440.32755L370.81537,440.3278C377.62164,450.3337,383.88452,465.377,388.97186,477.58505L388.97186,477.58524C392.55804,486.19113,395.51642,493.27197,397.701,496.48346L397.701,496.4845C398.20013,497.21722,398.59076,497.643,398.86475,497.84448L398.86462,497.8443C398.99512,497.94025,399.05896,497.95477,399.0594,497.95496L399.05908,497.956C399.05847,497.9547,399.05084,497.95312,399.0371,497.95312L399.0371,497.95337C399.0003,497.95312,398.97253,497.96393,398.96667,497.96704L399.51935,499.04572L399.51935,499.04602L399.51935,499.04572L399.51935,499.04602L398.96674,497.96686C400.50763,497.17773,401.35364,488.44547,402.08167,478.82425L402.08167,478.82443C402.46405,473.77344,402.83026,468.88113,403.47253,466.15338L403.47253,466.15372C403.82794,464.64462,404.3451,463.4107,405.28033,462.81088L405.28046,462.81192C405.6624,462.566,406.08276,462.4479,406.51184,462.4479L406.51184,462.44812C406.56958,462.4479,406.6266,462.45004,406.68286,462.45404L406.68274,462.4551C408.0384,462.5515,409.3316,463.89026,410.10876,464.63495L410.10876,464.63602C411.3402,465.81512,412.02356,466.35498,412.4395,466.35498L412.4395,466.35526C412.45593,466.35498,412.58752,466.37576,412.84595,466.0451L412.84595,466.04614C414.02704,464.5346,415.1101,459.67477,416.41052,453.63507L416.41052,453.6354C417.8302,447.04123,419.4726,439.32532,421.96698,435.33133L421.96698,435.33163C423.94873,432.15878,426.50854,431.19705,428.9743,431.19705L428.9743,431.1973C430.63654,431.19705,432.2265,431.63446,433.42688,431.95953L433.42688,431.95978C434.39874,432.22275,435.0025,432.37585,435.40167,432.37585L435.40167,432.3761C435.49597,432.37585,435.53552,432.36566,435.53857,432.36484L435.53857,432.36502C435.537,432.36526,435.50385,432.37537,435.461,432.4087L435.461,432.40973C435.42035,432.44022,435.40295,432.46753,435.40216,432.46896L435.40216,432.4692C435.57007,432.19327,435.5891,431.31348,435.49176,429.10336L435.49176,429.1037C435.32306,425.2706,435.04504,419.1173,438.09094,412.02585L438.09094,412.0261C442.88245,400.87048,455.9156,387.46927,468.66272,374.33405C469.12903,373.8537,469.89642,373.84216,470.3769,374.3084C470.85712,374.77457,470.8686,375.5419,470.40253,376.0223L470.40253,376.02255C457.50287,389.31454,444.88892,402.3411,440.3183,412.9825L440.3183,412.9827C437.5039,419.53528,437.74695,425.2114,437.91364,428.9967L437.91364,428.99695C437.98926,430.71683,438.13214,432.64636,437.47278,433.72952L437.47278,433.7306C437.34094,433.94586,437.1687,434.1522,436.94617,434.32474L436.94617,434.3258C436.71228,434.506,436.45795,434.62283,436.20752,434.69476L436.20752,434.69504C435.9301,434.77438,435.65436,434.8,435.40167,434.8L435.40167,434.80023C434.60303,434.8,433.6316,434.52643,432.7932,434.29935L432.79315,434.29965C431.5484,433.96234,430.2638,433.62122,428.9743,433.62122L428.9743,433.62146C427.28253,433.62122,425.5298,434.2031,424.0232,436.6155L424.0232,436.61566C421.81146,440.1566,420.24725,447.3323,418.78033,454.14536L418.78033,454.14563C417.5683,459.77484,416.38116,465.45914,414.75568,467.5383L414.75568,467.5384C414.15033,468.31247,413.36713,468.77917,412.4395,468.77917L412.4395,468.77936C410.80945,468.77917,409.3078,467.2249,408.43146,466.3851L408.43146,466.38614C407.3105,465.31088,406.7682,464.89053,406.50873,464.87192L406.50848,464.873C406.50848,464.87192,406.5099,464.872,406.51184,464.872L406.51184,464.8722C406.54114,464.872,406.5758,464.85995,406.58887,464.8516L406.58887,464.85147C406.53455,464.88635,406.18097,465.22717,405.8321,466.70898L405.8321,466.70926C405.24493,469.20288,404.8894,473.84775,404.4989,479.00714L404.4989,479.00748C403.87244,487.2854,403.20715,498.51862,400.07178,500.1245L399.51935,499.04572L399.51935,499.04602L399.51935,499.04572L399.51935,499.04602L400.0719,500.1245C399.75867,500.28503,399.40942,500.37738,399.0371,500.37738L399.0371,500.37744C398.8697,500.37738,398.70502,500.35864,398.5442,500.3236L398.54395,500.32465C398.1291,500.23334,397.7572,500.03894,397.42877,499.79742L397.42877,499.79846C396.81927,499.3493,396.24316,498.65027,395.69666,497.8468L395.6966,497.84784C393.33447,494.3744,390.25934,486.97675,386.73425,478.5175L386.73425,478.51773C381.61432,466.23102,375.4486,451.4489,368.81097,441.69095L368.81097,441.69128C367.83508,440.2561,366.84998,438.93192,365.8592,437.70383L365.8592,437.7041C359.253,429.5158,352.3803,425.5853,346.45044,422.19922L346.45044,422.1995C342.16052,419.74963,338.18762,417.4991,335.39062,414.03235L335.3907,414.03244C335.2323,413.8361,335.07837,413.63666,334.92792,413.43375L334.92792,413.434C331.18414,408.38068,329.78516,401.16995,328.6087,395.20615L328.6087,395.20633C327.6573,390.3833,326.87488,386.571,325.4204,384.60797L325.4204,384.60822C324.18524,382.9409,322.39105,382.58255,319.55994,382.10217L319.55994,382.10242C315.43182,381.4018,310.11487,380.48834,305.08966,373.4048L305.08966,373.405C301.47528,368.3101,297.99756,359.9814,294.74695,352.21393L294.74695,352.2141C290.44385,341.93173,286.75146,333.38055,283.78986,332.1314L283.78986,332.13162C283.5736,332.04016,283.37988,332.00436,283.20013,332.00436L283.20013,332.0046C282.4325,332.00436,281.37244,332.7,280.0542,334.60898L280.0542,334.60922C277.95416,337.65018,275.9693,342.61813,274.06097,347.4134L274.06097,347.41367C272.46014,351.43582,270.8866,355.41138,269.3794,357.5941L269.3794,357.59433C268.18677,359.32135,266.8568,360.19357,265.3485,360.19357L265.3485,360.19382C263.8272,360.19357,262.47833,359.25647,261.57397,358.65982L261.57404,358.66006C260.53772,357.97604,259.97412,357.65588,259.5301,357.65588L259.5301,357.6561C259.3647,357.65588,259.021,357.7001,258.49487,358.44366L258.49493,358.44473C256.9981,360.55887,255.39384,366.24548,253.88356,371.66925L253.88356,371.6695C252.71696,375.85907,251.52501,380.30075,250.40907,381.49118L250.40907,381.49146C250.21223,381.70126,249.79793,382.06772,249.18422,382.06772L249.18422,382.06796C248.89156,382.06772,248.62685,381.98132,248.40724,381.84756L248.40718,381.84747C248.12294,381.67422,247.93886,381.43768,247.82497,381.2605L247.82503,381.26154C247.70753,381.07776,247.61528,380.8799,247.54048,380.69077L247.54048,380.69098C246.87422,379.0038,246.45308,374.71854,245.98027,370.061L245.98027,370.0612C245.26176,362.9818,244.39824,354.5915,242.65056,350.1668L242.65056,350.16705C241.4394,347.1003,239.96626,346.32855,238.51198,346.32855L238.51198,346.32883C235.80013,346.32855,232.28474,348.85037,228.22455,351.84833C227.85655,352.1201,227.3669,352.16138,226.95853,351.9553C226.55006,351.74918,226.29253,351.33075,226.29253,350.8732L226.29253,350.8735L226.29253,350.873C226.29253,350.2036,226.83519,349.66092,227.5046,349.66092C228.17397,349.66092,228.7167,350.2036,228.7167,350.873 Z"/>
</g>
<g style="fill:rgb(0,0,0); fill-opacity:1.0; stroke-linejoin: miter">
<path d="M324.77856,753.3117L360.66223,753.31274L396.54565,753.3118Q396.54565,798.6352,396.54565,843.9583Q360.6621,843.95856,324.77844,843.95874Q324.77856,798.6352,324.77856,753.3117 Z"/>
</g>
<g style="fill:rgb(0,0,0); fill-opacity:1.0; stroke-linejoin: miter">
<path d="M273.2155,834.0306L360.6621,834.0313L448.10876,834.03174Q448.10876,840.98926,448.10876,847.94714Q360.6621,847.9474,273.2154,847.94714Q273.2154,840.989,273.2155,834.0306 Z"/>
</g>
<g style="fill:rgb(252,233,234); fill-opacity:1.0; stroke-linejoin: miter">
<path d="M366.69672,771.32715L366.69672,771.3276L366.69672,771.32745C366.69672,771.66833,366.4204,771.9446,366.0796,771.9446C365.73877,771.9446,365.4624,771.66833,365.4624,771.32745L365.4624,771.3279L365.4624,771.32715C365.4624,770.9863,365.73877,770.7098,366.0796,770.7098C366.4204,770.7098,366.69672,770.9863,366.69672,771.32715 Z"/>
</g>
<g style="fill:rgb(0,0,0); fill-opacity:1.0; stroke-linejoin: miter">
<path d="M338.5335,1130.719L345.39313,1162.7092Q327.2738,1166.3369,320.1643,1166.4329Q313.6388,1166.9417,301.69257,1164.2021L305.12085,1118.0144L338.5335,1130.719 Z"/>
</g>
<g style="fill:rgb(0,0,0); fill-opacity:1.0; stroke-linejoin: miter">
<path d="M419.3944,1127.6716L423.82983,1164.5212Q410.63885,1168.4214,404.34363,1168.2783Q397.73352,1168.4597,385.89807,1164.7837L391.617,1132.1106L419.3944,1127.6716 Z"/>
</g>
<g style="fill:rgb(60,70,79); fill-opacity:1.0; stroke-linejoin: miter">
<path d="M344.47717,987.23834L343.70886,1062.4502L342.9406,1137.6621L301.7724,1138.261Q293.46448,1062.8733,285.1568,987.48553L344.47717,987.23834 Z"/>
</g>
<g style="fill:rgb(60,70,79); fill-opacity:1.0; stroke-linejoin: miter">
<path d="M382.2531,985.85284L384.0304,1062.2388L385.80762,1138.6245Q407.112,1138.5024,428.41632,1138.3796Q437.15125,1060.5691,445.88617,982.7581L382.2531,985.85284 Z"/>
</g>
<g style="fill:rgb(0,0,0); fill-opacity:1.0; stroke-linejoin: miter">
<path d="M451.90967,1171.9114L451.11133,1173.6184Q445.43433,1178.7771,417.89014,1181.8699Q390.1554,1184.9604,352.57086,1184.3765Q316.70135,1183.5598,295.19562,1179.5981Q288.30487,1178.3179,283.84393,1176.8076L280.09467,1175.2551Q277.00488,1173.6528,276.9702,1171.9111Q277.90814,1166.5657,302.58936,1163.0159Q327.2708,1159.4666,364.44006,1159.3315Q401.60913,1159.4666,426.29053,1163.0161Q450.97192,1166.5659,451.90967,1171.9114 Z"/>
</g>
<g style="fill:rgb(0,0,0); fill-opacity:0.99607843; stroke-linejoin: miter">
<path d="M461.38745,983.3618L460.49292,988.8659Q454.13293,1005.49994,423.27454,1015.4727Q392.20258,1025.4375,350.09595,1023.55414Q309.91058,1020.9212,285.81726,1008.14825Q278.09753,1004.0196,273.09985,999.1507L268.8994,994.14484Q265.43787,988.9783,265.39893,983.36163Q266.44977,966.12537,294.10083,954.6797Q321.75195,943.2346,363.39313,942.7996Q405.03455,943.2346,432.6856,954.6799Q460.33667,966.1256,461.38745,983.3618 Z"/>
</g>
<g style="fill:rgb(34,43,50); fill-opacity:1.0; stroke-linejoin: miter">
<path d="M383.28754,1128.5369L407.13342,1128.5374L430.9793,1128.5374Q430.9793,1134.0073,430.9793,1139.4763Q407.13342,1139.4773,383.28754,1139.4775Q383.28754,1134.0073,383.28754,1128.5369 Z"/>
</g>
<g style="fill:rgb(34,43,50); fill-opacity:1.0; stroke-linejoin: miter">
<path d="M299.86615,1130.624L322.67114,1130.6248L345.4759,1130.625Q345.4759,1136.0276,345.4759,1141.4294Q322.67114,1141.4299,299.86615,1141.4304Q299.86615,1136.0273,299.86615,1130.624 Z"/>
</g>
<g style="fill:rgb(35,75,105); fill-opacity:0.99607843; stroke-linejoin: miter">
<path d="M182.94801,705.8034L182.94801,705.80396L182.94801,705.80426L182.94801,705.80396L182.94801,705.8034L182.94801,705.80396L182.94801,705.80426Q182.94801,705.80396,182.94801,705.8034 Z"/>
</g>
<g style="fill:rgb(0,0,0); fill-opacity:1.0; stroke-linejoin: miter">
<path d="M354.18274,1005.3116L364.44006,1005.3117L374.6974,1005.3122Q374.6974,1090.0828,374.6974,1174.8528Q364.44006,1174.8533,354.18274,1174.8538Q354.18274,1090.0828,354.18274,1005.3116 Z"/>
</g>
<g style="fill:rgb(0,0,0); fill-opacity:1.0; stroke-linejoin: miter">
<path d="M244.80302,938.78326L360.51984,938.78394L476.23682,938.7844Q476.23682,954.1112,476.23682,969.438Q360.51984,969.43823,244.80302,969.4384Q244.80302,954.11096,244.80302,938.78326 Z"/>
</g>
<g style="fill:rgb(255,191,175); fill-opacity:0.99607843; stroke-linejoin: miter">
<path d="M329.92242,673.7476L330.1115,676.2999Q331.597,693.21545,329.82404,701.329Q328.44757,708.79724,320.19043,716.6641L391.3907,712.61865Q382.42084,701.9551,379.5987,693.83594Q376.47992,686.21454,373.5677,665.39716L329.92242,673.7476 Z"/>
</g>
<g style="fill:rgb(255,191,175); fill-opacity:0.99607843; stroke-linejoin: miter">
<path d="M319.9195,660.7592L319.88397,662.4179Q319.34216,667.4493,315.80328,670.6034Q312.23883,673.75635,307.2105,673.40454Q302.401,672.8179,299.3733,669.10156Q296.34692,665.35876,296.6634,660.09766Q297.20514,655.06635,300.7442,651.9121Q304.30865,648.75934,309.3369,649.1112Q314.14648,649.6979,317.174,653.41394Q318.1446,654.61554,318.8012,656.0533L319.36475,657.5365Q319.8426,659.07135,319.9195,660.7592 Z"/>
</g>
<g style="fill:rgb(255,191,175); fill-opacity:0.99607843; stroke-linejoin: miter">
<path d="M396.5843,653.022L396.54877,654.6807Q396.00702,659.7122,392.46796,662.86633Q388.9035,666.0192,383.8753,665.6675Q379.06573,665.08075,376.03802,661.36444Q373.0116,657.6214,373.32806,652.3604Q373.86993,647.3289,377.4088,644.1747Q380.97333,641.0218,386.0016,641.37366Q390.81122,641.9602,393.8388,645.6765Q394.80945,646.8781,395.46594,648.31586L396.02948,649.799Q396.5074,651.3341,396.5843,653.022 Z"/>
</g>
<g style="fill:rgb(0,0,0); fill-opacity:1.0; stroke-linejoin: miter">
<path d="M373.84216,596.03516L376.1662,596.6441Q383.34326,598.1582,388.67487,602.49005Q390.38373,604.0384,391.6825,606.21295L392.85297,608.583Q393.90826,611.1294,394.3996,614.5367Q396.62628,632.47095,386.101,664.52795Q383.0271,672.95605,379.57373,678.4272Q377.83936,681.18335,375.95892,683.3403Q375.13696,684.71936,369.8991,688.70905Q353.8521,697.89453,339.203,694.1782Q320.67072,689.7506,305.66974,659.24164Q300.17944,647.626,297.94757,635.5038Q295.72644,623.3877,298.50958,613.33704Q299.95172,608.3895,302.48187,604.15985L305.21277,600.11755Q308.18005,596.25885,311.8073,593.16675Q315.43457,590.0747,319.4364,587.7825Q321.41718,586.11194,331.57166,582.78674Q340.9513,580.328,350.02985,582.8061Q360.1911,585.60547,373.84216,596.03516 Z"/>
</g>
<g style="fill:rgb(212,239,240); fill-opacity:1.0; stroke-linejoin: miter">
<path d="M326.42694,698.87756L356.91827,696.2188L387.4098,693.5599Q392.0426,713.6716,396.6754,733.78296Q392.3767,768.5902,388.078,803.39746Q350.95264,801.1486,313.82733,798.8998L326.42694,698.87756 Z"/>
</g>
<g style="fill:rgb(224,77,105); fill-opacity:0.99607843; stroke-linejoin: miter">
<path d="M382.77148,852.7613L382.77148,852.7617Q382.77148,852.7629,382.77148,852.7613 Z"/>
</g>
<g style="fill:rgb(0,0,0); fill-opacity:0.99607843; stroke-linejoin: miter">
<path d="M418.24976,524.1067L418.24976,524.1068Q418.24976,524.1077,418.24976,524.1067 Z"/>
</g>
<g style="fill:rgb(255,255,255); fill-opacity:0.99607843; stroke-linejoin: miter">
<path d="M481.12335,886.37335L531.3751,886.37384L581.627,886.3743Q581.627,986.2838,581.627,1086.1934Q531.3751,1086.1938,481.12335,1086.1941Q481.12335,986.28375,481.12335,886.37335"/>
</g>
<g style="fill:rgb(125,139,150); fill-opacity:0.99607843; stroke-linejoin: miter">
<path d="M504.54675,966.8083L534.54645,966.80884L564.5462,966.8093Q564.5462,1010.77057,564.5462,1054.7319Q534.54645,1054.7324,504.54675,1054.7329Q504.54675,1010.77057,504.54675,966.8083"/>
</g>
<g style="fill:rgb(125,139,150); fill-opacity:0.99607843; stroke-linejoin: miter">
<path d="M493.00714,895.3643L532.29926,895.36487L571.5913,895.36536Q571.5913,914.10065,571.5913,932.836Q532.29926,932.83655,493.00714,932.8371Q493.00714,914.1007,493.00714,895.3643"/>
</g>
<g style="fill:rgb(125,139,150); fill-opacity:0.99607843; stroke-linejoin: miter">
<path d="M377.92346,266.31158L377.92346,266.3121L377.92352,266.31265L377.92346,266.3121L377.92346,266.31158L377.92346,266.3121L377.92352,266.31265Q377.92346,266.3121,377.92346,266.31158"/>
</g>
<g style="fill:rgb(212,239,240); fill-opacity:0.99607843; stroke-linejoin: miter">
<path d="M382.21448,704.47235L389.79846,706.5998Q413.01715,712.26526,432.0348,724.3562Q438.21844,728.6245,443.4685,734.32056L448.42682,740.46277Q453.12256,747.0066,456.53467,755.51355Q459.9079,764.0801,461.99744,774.6098L463.8244,785.541Q465.35962,796.91846,465.96136,809.7237Q467.69897,841.3798,463.63824,909.35474L370.25354,872.22064L382.21448,704.47235"/>
</g>
<g style="fill:rgb(212,239,240); fill-opacity:0.99607843; stroke-linejoin: miter">
<path d="M350.09918,707.71704L342.32257,708.9103Q307.22552,714.08954,292.18152,725.0745Q286.01562,729.19855,280.7702,734.9978L275.80597,741.30896Q271.1045,748.10956,267.60193,757.0473Q260.67877,775.3639,257.85034,797.8988Q253.7773,832.6836,255.86436,859.2737Q257.0573,879.6279,262.4975,888.73676Q266.86646,895.3637,276.2954,892.9792L345.38873,875.8253L350.09918,707.71704"/>
</g>
<g style="fill:rgb(34,43,50); fill-opacity:1.0; stroke-linejoin: miter">
<path d="M448.8263,879.20905L460.7384,879.20953L472.6504,879.2097Q472.65027,937.9637,472.65027,996.7177Q460.73828,996.71814,448.82617,996.7184Q448.82617,937.9637,448.8263,879.20905 Z"/>
</g>
<g style="fill:rgb(34,43,50); fill-opacity:1.0; stroke-linejoin: miter">
<path d="M253.47853,877.788L265.39062,877.78827L277.30273,877.7887Q277.30273,936.54297,277.3026,995.2967Q265.39062,995.29694,253.4785,995.29755Q253.47853,936.54266,253.47853,877.788 Z"/>
</g>
<g style="fill:rgb(0,0,0); fill-opacity:1.0; stroke-linejoin: miter">
<path d="M268.24048,774.05334L364.44006,774.05396L460.63983,774.05426Q460.63983,882.9789,460.63965,991.90405Q364.43994,991.9043,268.24036,991.9043Q268.24036,882.97864,268.24048,774.05334 Z"/>
</g>
<g style="fill:rgb(212,239,240); fill-opacity:0.99607843; stroke-linejoin: miter">
<path d="M527.25,867.4058Q526.44763,868.02985,523.2697,871.80133 Z"/>
</g>
<g style="fill:rgb(217,226,231); fill-opacity:0.99607843; stroke-linejoin: miter">
<path d="M529.1971,837.38196L566.45355,837.3821L603.7101,837.38226Q603.7101,849.4485,603.7101,861.5147Q566.45355,861.51483,529.1971,861.5149Q529.1971,849.4484,529.1971,837.38196"/>
</g>
<g style="fill:rgb(217,226,231); fill-opacity:0.99607843; stroke-linejoin: miter">
<path d="M572.64716,825.1219L584.7368,825.122L596.8264,825.1221Q596.8264,831.92755,596.8264,838.73303Q584.7368,838.73315,572.64716,838.7333Q572.64716,831.9276,572.64716,825.1219"/>
</g>
<g style="fill:rgb(255,0,0); fill-opacity:0.99607843; stroke-linejoin: miter">
<path d="M201.66791,759.1596L221.92587,759.15985L242.18382,759.16016Q242.18382,767.3789,242.18382,775.59766Q221.92587,775.5979,201.66791,775.5981Q201.66791,767.3789,201.66791,759.1596"/>
</g>
<g style="fill:rgb(76,175,80); fill-opacity:1.0; stroke-linejoin: miter">
<path d="M136.16089,758.8672L176.6768,758.8678L176.6768,775.30524L136.16089,775.30566L136.16089,758.8672"/>
</g>
<g style="fill:rgb(220,229,235); fill-opacity:0.99607843; stroke-linejoin: miter">
<path d="M117.96167,707.29224L140.08414,707.2928L162.20657,707.2933Q162.20657,720.8616,162.20657,734.42993Q140.08414,734.4304,117.96167,734.4309Q117.96167,720.8616,117.96167,707.29224"/>
</g>
<g style="fill:rgb(60,70,79); fill-opacity:0.45490196; stroke-linejoin: miter">
<path d="M115.63704,696.9541L276.70013,696.95514L276.70013,687.4775L115.63704,687.4785L115.63704,696.9541"/>
</g>
<g style="fill:rgb(125,139,150); fill-opacity:0.5529412; stroke-linejoin: miter">
<path d="M169.37857,698.7428L268.9525,698.74384L268.9525,752.9524L169.37857,752.95337L169.37857,698.7428"/>
</g>
<g style="fill:rgb(220,229,235); fill-opacity:0.99607843; stroke-linejoin: miter">
<path d="M96.419334,693.68866L104.14939,693.68915L111.879456,693.6897Q111.879456,742.23236,111.879456,790.77496Q104.14939,790.7755,96.419334,790.776Q96.419334,742.23236,96.419334,693.68866"/>
</g>
</g>
</svg>